<?xml version="1.0" encoding="iso-8859-1"?>
<!-- Generator: Adobe Illustrator 19.0.0, SVG Export Plug-In . SVG Version: 6.00 Build 0)  -->
<svg version="1.1" id="Layer_1" xmlns="http://www.w3.org/2000/svg" xmlns:xlink="http://www.w3.org/1999/xlink" x="0px" y="0px"
	 viewBox="0 0 388.055 388.055" style="enable-background:new 0 0 388.055 388.055;" xml:space="preserve">
<g>
	<g>
		<g>
			<path d="M288.428,136.455c-26-32.4-53.2-66.4-52.4-128.4c0-3.2-1.6-5.6-4.4-7.2c-2.8-1.2-6-1.2-8.4,0.4
				c-43.6,31.2-82.4,99.6-71.2,182.8c-15.2-8.8-24.4-23.6-34.8-39.2c-3.2-5.2-6.4-10.4-10-15.2c-1.6-2-4-3.6-6.8-3.2
				c-2.8,0-5.2,1.6-6.4,3.6c-20.8,32.4-42,71.6-42,114c0,83.6,58.8,144,140,144c82,0,144-62,144-144
				C336.028,195.655,312.028,165.655,288.428,136.455z M192.028,372.055c-72,0-124-54-124-128c0-34,15.6-66.8,33.2-95.2
				c0.8,1.6,2,2.8,2.8,4.4c10.8,16.8,21.6,33.6,40,44.4c5.2,3.2,11.6,3.2,16.8,0c5.2-3.2,8-9.2,7.2-15.6
				c-9.6-68.4,18-126,52.4-157.2c4,57.6,31.2,91.6,55.6,122c23.6,29.2,44,54.4,44,97.2
				C320.028,316.855,264.828,372.055,192.028,372.055z"/>
			<path d="M300.028,220.055c-4.4,0-8,3.6-8,8c0,26.4-6.8,50.4-20.8,71.6c-2.4,3.6-1.2,8.8,2.4,11.2c1.2,0.8,2.8,1.2,4.4,1.2
				c2.8,0,5.2-1.2,6.8-3.6c15.2-24,23.2-50.8,23.2-80.4C308.028,223.655,304.428,220.055,300.028,220.055z"/>
			<path d="M267.228,318.055c-3.2-2.8-8.4-2.4-11.2,0.8c-2,2.4-4.8,4.8-7.6,7.2c-3.2,2.8-3.6,8-0.8,11.2c1.6,2,4,2.8,6,2.8
				s3.6-0.8,5.2-2c3.2-2.8,6.4-5.6,9.2-8.8C270.828,326.055,270.428,320.855,267.228,318.055z"/>
		</g>
	</g>
</g>
<g>
</g>
<g>
</g>
<g>
</g>
<g>
</g>
<g>
</g>
<g>
</g>
<g>
</g>
<g>
</g>
<g>
</g>
<g>
</g>
<g>
</g>
<g>
</g>
<g>
</g>
<g>
</g>
<g>
</g>
</svg>
