<?xml version="1.0" encoding="utf-8"?>
<!-- Generator: Adobe Illustrator 16.0.0, SVG Export Plug-In . SVG Version: 6.00 Build 0)  -->
<!DOCTYPE svg PUBLIC "-//W3C//DTD SVG 1.1//EN" "http://www.w3.org/Graphics/SVG/1.1/DTD/svg11.dtd">
<svg version="1.1" id="Layer_1" xmlns="http://www.w3.org/2000/svg" xmlns:xlink="http://www.w3.org/1999/xlink" x="0px" y="0px"
	 width="888px" height="310px" viewBox="0 0 888 310" enable-background="new 0 0 888 310" xml:space="preserve">
<g>
	<path fill="#F47E5B" d="M430.802,161.794c-23.787-22.429-68.516-72.319-44.584-102.13l0,0c11.454-11.626,30.027-11.626,41.482,0
		L444,76.208l16.299-16.544c11.455-11.626,30.027-11.626,41.482,0l0,0c23.93,29.812-20.797,79.701-44.584,102.13
		c-3.588,3.385-8.301,5.262-13.198,5.262l0,0C439.103,167.056,434.39,165.179,430.802,161.794z"/>
	<path fill="#F2684E" d="M457.197,161.794c-3.588,3.385-8.301,5.262-13.198,5.262c-1.586,0-3.154-0.199-4.67-0.582
		c3.164-0.795,6.104-2.391,8.53-4.68c23.787-22.429,68.514-72.318,44.582-102.13l0,0c-4.535-4.604-10.186-7.382-16.07-8.341
		c8.975-1.46,18.49,1.318,25.41,8.341l0,0C525.711,89.475,480.984,139.365,457.197,161.794z"/>
	<path fill="#F47E5B" d="M455.105,122.241v3.786l-67.521,0.011c-4.522,0-8.203-3.68-8.203-8.203s3.681-8.204,8.203-8.204h3.786
		c1.046,0,1.894,0.848,1.894,1.894s-0.848,1.893-1.894,1.893h-3.786c-2.436,0-4.417,1.982-4.417,4.418s1.981,4.417,4.417,4.417
		L455.105,122.241z"/>
	<path fill="#DCEAE9" d="M450.057,121.621c0-13.94,11.303-25.242,25.242-25.242c13.941,0,25.242,11.302,25.242,25.242
		c0,13.939-11.301,25.241-25.242,25.241C461.359,146.862,450.057,135.561,450.057,121.621z"/>
	<path fill="#F6FAF8" d="M492.969,121.621c0,12.653-9.313,23.132-21.455,24.958c-12.146-1.826-21.457-12.305-21.457-24.958
		s9.311-23.133,21.457-24.959C483.656,98.488,492.969,108.968,492.969,121.621z"/>
	<path fill="#EA6249" d="M508.619,124.131c0,1.047-0.848,1.894-1.895,1.894h-17.799l-5.318,8.066
		c-0.354,0.537-0.953,0.852-1.582,0.852c-0.092,0-0.186-0.007-0.281-0.021c-0.729-0.111-1.328-0.634-1.535-1.343l-4.762-16.34
		l-3.137,7.614c-0.291,0.709-0.984,1.172-1.75,1.172l-82.976,0.014c-4.522,0-8.203-3.68-8.203-8.203s3.681-8.204,8.203-8.204h0.854
		c0.682,1.265,1.394,2.527,2.132,3.786h-2.986c-2.436,0-4.417,1.982-4.417,4.418s1.981,4.417,4.417,4.417l81.708-0.013l4.711-11.437
		c0.307-0.743,1.047-1.214,1.852-1.168c0.803,0.042,1.492,0.588,1.717,1.36l5.127,17.594l3.627-5.5c0.35-0.531,0.943-0.85,1.58-0.85
		h18.818C507.771,122.239,508.619,123.086,508.619,124.131z"/>
</g>
<rect x="285.146" y="184.687" fill="none" width="317.708" height="18.75"/>
<text transform="matrix(0.83 0 0 1 341.3882 197.9346)" font-family="'CenturyGothic-Bold'" font-size="18">Awesome Design Systems</text>
<rect x="340.605" y="189.667" fill="none" width="206.791" height="108.333"/>
<text transform="matrix(0.83 0 0 1 352.4409 215.915)"><tspan x="0" y="0" fill="#6B6B6B" font-family="'CenturyGothic'" font-size="13">A curated list of design systems, </tspan><tspan x="3.186" y="13" fill="#6B6B6B" font-family="'CenturyGothic'" font-size="13">pattern libraries, and everyting </tspan><tspan x="71.413" y="26" fill="#6B6B6B" font-family="'CenturyGothic'" font-size="13">inbetween.</tspan></text>
</svg>
