<?xml version="1.0" encoding="utf-8"?>
<!-- Generator: Adobe Illustrator 16.0.0, SVG Export Plug-In . SVG Version: 6.00 Build 0)  -->
<!DOCTYPE svg PUBLIC "-//W3C//DTD SVG 1.1//EN" "http://www.w3.org/Graphics/SVG/1.1/DTD/svg11.dtd">
<svg version="1.1" id="Layer_1" xmlns="http://www.w3.org/2000/svg" xmlns:xlink="http://www.w3.org/1999/xlink" x="0px" y="0px"
	 width="888px" height="310px" viewBox="0 0 888 310" enable-background="new 0 0 888 310" xml:space="preserve">
<g>
	<path fill="#F47E5B" d="M435.612,156.555c-15.118-14.255-43.546-45.964-28.336-64.911l0,0c7.28-7.389,19.084-7.389,26.365,0
		L444,102.158l10.359-10.515c7.28-7.389,19.084-7.389,26.365,0l0,0c15.209,18.947-13.219,50.656-28.337,64.911
		c-2.28,2.15-5.275,3.344-8.388,3.344l0,0C440.888,159.898,437.893,158.705,435.612,156.555z"/>
	<path fill="#F2684E" d="M452.388,156.555c-2.28,2.15-5.275,3.344-8.388,3.344c-1.008,0-2.005-0.127-2.968-0.37
		c2.011-0.505,3.879-1.519,5.421-2.974c15.118-14.255,43.545-45.964,28.335-64.911l0,0c-2.883-2.926-6.474-4.692-10.214-5.301
		c5.704-0.928,11.752,0.838,16.15,5.301l0,0C495.934,110.59,467.506,142.299,452.388,156.555z"/>
	<path fill="#F47E5B" d="M451.059,131.416v2.407l-42.915,0.007c-2.875,0-5.213-2.339-5.213-5.214s2.339-5.214,5.213-5.214h2.406
		c0.665,0,1.204,0.539,1.204,1.204c0,0.665-0.539,1.203-1.204,1.203h-2.406c-1.548,0-2.807,1.26-2.807,2.808
		s1.259,2.807,2.807,2.807L451.059,131.416z"/>
	<path fill="#DCEAE9" d="M447.85,131.021c0-8.86,7.184-16.043,16.043-16.043c8.861,0,16.043,7.183,16.043,16.043
		c0,8.859-7.182,16.042-16.043,16.042C455.033,147.064,447.85,139.881,447.85,131.021z"/>
	<path fill="#F6FAF8" d="M475.123,131.021c0,8.042-5.919,14.702-13.636,15.863c-7.721-1.161-13.638-7.821-13.638-15.863
		s5.917-14.703,13.638-15.863C469.204,116.319,475.123,122.979,475.123,131.021z"/>
	<path fill="#EA6249" d="M485.07,132.617c0,0.666-0.539,1.204-1.204,1.204h-11.313l-3.38,5.126
		c-0.226,0.342-0.606,0.542-1.006,0.542c-0.059,0-0.118-0.004-0.179-0.014c-0.463-0.071-0.845-0.403-0.976-0.854l-3.026-10.385
		l-1.994,4.839c-0.185,0.451-0.625,0.745-1.112,0.745l-52.737,0.009c-2.875,0-5.213-2.339-5.213-5.214s2.339-5.214,5.213-5.214
		h0.543c0.434,0.804,0.886,1.606,1.355,2.406h-1.898c-1.548,0-2.807,1.26-2.807,2.808s1.259,2.807,2.807,2.807l51.931-0.008
		l2.994-7.269c0.195-0.473,0.666-0.772,1.177-0.743c0.511,0.027,0.949,0.374,1.092,0.865l3.258,11.182l2.306-3.496
		c0.222-0.338,0.6-0.54,1.004-0.54h11.961C484.531,131.415,485.07,131.953,485.07,132.617z"/>
</g>
<rect x="285.146" y="172.687" fill="none" width="317.708" height="18.75"/>
<text transform="matrix(0.83 0 0 1 339.9893 186.8262)" fill="#33373A" font-family="'Corbel-Bold'" font-size="20">Awesome Design Systems</text>
<rect x="341.824" y="191.667" fill="none" width="204.353" height="39.77"/>
<text transform="matrix(0.83 0 0 1 343.3535 200.8574)"><tspan x="0" y="0" fill="#6B6B6B" font-family="'Corbel'" font-size="13">A curated list of design systems, pattern </tspan><tspan x="16.658" y="13" fill="#6B6B6B" font-family="'Corbel'" font-size="13">libraries, and everyting inbetween.</tspan></text>
</svg>
